<svg xmlns="http://www.w3.org/2000/svg" version="1.1" xmlns:xlink="http://www.w3.org/1999/xlink" xmlns:svgjs="http://svgjs.dev/svgjs" viewBox="0 0 1422 800"><g shape-rendering="crispEdges" stroke-linejoin="round" fill="none" stroke-width="2.5" stroke="hsl(0, 0%, 100%)"><polygon points="1422,200 1422,0 1066.5,0"></polygon><polygon points="1066.5,0 1066.5,200 711,0"></polygon><polygon points="1066.5,300 888.75,200 888.75,300"></polygon><polygon points="711,200 888.75,300 888.75,200"></polygon><polygon points="888.75,300 888.75,400 711,300"></polygon><polygon points="888.75,300 888.75,400 1066.5,300"></polygon><polygon points="1066.5,200 1422,400 1066.5,400"></polygon><polygon points="355.5,200 711,200 355.5,0"></polygon><polygon points="355.5,200 0,0 355.5,0"></polygon><polygon points="0,200 0,400 355.5,200"></polygon><polygon points="711,200 533.25,200 533.25,300"></polygon><polygon points="444.375,200 533.25,250 533.25,200"></polygon><polygon points="444.375,200 444.375,250 355.5,200"></polygon><polygon points="444.375,300 355.5,250 444.375,250"></polygon><polygon points="533.25,250 533.25,300 444.375,250"></polygon><polygon points="533.25,400 533.25,300 355.5,400"></polygon><polygon points="711,300 711,400 533.25,400"></polygon><polygon points="533.25,400 711,500 533.25,500"></polygon><polygon points="533.25,500 533.25,400 355.5,500"></polygon><polygon points="355.5,500 533.25,600 533.25,500"></polygon><polygon points="533.25,500 711,600 533.25,600"></polygon><polygon points="355.5,600 355.5,400 0,400"></polygon><polygon points="355.5,600 355.5,800 0,600"></polygon><polygon points="711,800 711,600 355.5,800"></polygon><polygon points="1422,500 1422,400 1244.25,400"></polygon><polygon points="1244.25,400 1244.25,500 1066.5,500"></polygon><polygon points="1066.5,500 1066.5,600 1244.25,600"></polygon><polygon points="1422,500 1244.25,500 1244.25,600"></polygon><polygon points="1066.5,400 1066.5,500 888.75,400"></polygon><polygon points="888.75,400 711,500 888.75,500"></polygon><polygon points="888.75,600 888.75,500 711,500"></polygon><polygon points="1066.5,600 1066.5,500 888.75,500"></polygon><polygon points="1066.5,800 1066.5,600 711,600"></polygon><polygon points="1422,800 1422,600 1066.5,600"></polygon></g><g fill="hsl(220, 62%, 45%)" stroke-width="3" stroke="hsl(220, 43%, 13%)"></g></svg>